# AST/ASF file generated using VICON BodyLanguage
# -----------------------------------------------
:version 1.10
:name VICON
:units
  mass 1.0
  length 0.45
  angle deg
:documentation
   .ast/.asf automatically generated from VICON data using
   VICON BodyBuilder and BodyLanguage model FoxedUp or BRILLIANT.MOD
:root
   order TX TY TZ RX RY RZ
   axis XYZ
   position 0 0 0  
   orientation 0 -0 0 
:bonedata
  begin
     id 1 
     name lhipjoint
     direction 0.515797 -0.759363 0.396637 
     length 2.47888 
     axis 0 -0 0  XYZ
  end
  begin
     id 2 
     name lfemur
     direction 0.34202 -0.939693 0  
     length 6.81885  
     axis 0 -0 20  XYZ
    dof rx ry rz
    limits (-160.0 20.0)
           (-70.0 70.0)
           (-60.0 70.0)
  end
  begin
     id 3 
     name ltibia
     direction 0.342037 -0.939687 0   
     length 7.89258   
     axis 0 -0 20   XYZ
    dof rx
    limits (-10.0 170.0)
  end
  begin
     id 4 
     name lfoot
     direction 0.173497 -0.476678 0.861787   
     length 2.51543   
     axis -90 -1.13533e-015 20   XYZ
    dof rx rz
    limits (-45.0 90.0)
           (-70.0 20.0)
  end
  begin
     id 5 
     name ltoes
     direction 1.53564e-011 -4.21897e-011 1   
     length 1.21388   
     axis -90 -1.13533e-015 20   XYZ
    dof rx
    limits (-90.0 20.0)
  end
  begin
     id 6 
     name rhipjoint
     direction -0.489454 -0.772941 0.403729   
     length 2.43534  
     axis 0 -0 0  XYZ 
  end
  begin
     id 7 
     name rfemur
     direction -0.34202 -0.939693 0   
     length 7.10357   
     axis 0 -0 -20   XYZ
    dof rx ry rz
    limits (-160.0 20.0)
           (-70.0 70.0)
           (-70.0 60.0)
  end
  begin
     id 8 
     name rtibia
     direction -0.34202 -0.939693 0   
     length 9.16127   
     axis 0 -0 -20   XYZ
    dof rx
    limits (-10.0 170.0)
 end
 begin
     id 9 
     name rfoot
     direction -0.270974 -0.748671 0.605033   
     length 1.74894  
     axis -90 1.13533e-015 -20   XYZ
    dof rx rz
    limits (-45.0 90.0)
           (-20.0 70.0)
  end
  begin
     id 10 
     name rtoes
     direction -1.53557e-011 -4.21759e-011 1   
     length 0.787585   
     axis -90 1.13533e-015 -20   XYZ
    dof rx
    limits (-90.0 20.0)
  end
  begin
     id 11 
     name lowerback
     direction -0.0140249 0.999561 0.0260968   
     length 2.16963   
     axis 0 -0 0   XYZ
    dof rx ry rz
    limits (-20.0 45.0)
           (-30.0 30.0)
           (-30.0 30.0)
  end
  begin
     id 12 
     name upperback
     direction 0.00860018 0.999959 -0.002711   
     length 2.1726   
     axis 0 -0 0   XYZ
    dof rx ry rz
    limits (-20.0 45.0)
           (-30.0 30.0)
           (-30.0 30.0)
  end
  begin
     id 13 
     name thorax
     direction 0.015211 0.999782 -0.0143191   
     length 2.17061   
     axis 0 -0 0   XYZ
    dof rx ry rz
    limits (-20.0 45.0)
           (-30.0 30.0)
           (-30.0 30.0)
  end
  begin
     id 14 
     name lowerneck
     direction -0.0140143 0.999447 0.030145   
     length 2.26749   
     axis 0 -0 0   XYZ
    dof rx ry rz
    limits (-20.0 45.0)
           (-30.0 30.0)
           (-30.0 30.0)
  end
  begin
     id 15 
     name upperneck
     direction 0.118062 0.961438 -0.248392   
     length 2.22728   
     axis 0 -0 0   XYZ
    dof rx ry rz
    limits (-20.0 45.0)
           (-30.0 30.0)
           (-30.0 30.0)
  end
  begin
     id 16
     name head
     direction 0.0431885 0.9954 -0.085514  
     length 2.28786  
     axis 0 -0 0   XYZ
    dof rx ry rz
    limits (-20.0 45.0)
           (-30.0 30.0)
           (-30.0 30.0)
  end
  begin
     id 17 
     name lclavicle
     direction 0.912126 0.409548 0.0172323  
     length 4.31571  
     axis 0 -0 0   XYZ
    dof ry rz
    limits (-20.0 10.0)
           (0.0 20.0)
  end
  begin
     id 18 
     name lhumerus
     direction 1 -4.48977e-011 1.93091e-027   
     length 5.13658   
     axis 180 -30 -90   XYZ
    dof rx ry rz
    limits (-60.0 90.0)
           (-90.0 90.0)
           (-90.0 90.0)
  end
  begin
     id 19
     name lradius
     direction 1 -4.48916e-011 6.84018e-027   
     length 3.22473   
     axis 180 -30 -90   XYZ
    dof rx
    limits (-10.0 170.0)
  end
  begin
     id 20
     name lwrist
     direction 1 -4.48987e-011 7.01981e-027   
     length 1.61236   
     axis -4.37994e-015 90 90   XYZ
    dof ry
    limits (-180.0 0.0)
 end
  begin
     id 21 
     name lhand
     direction 1 -4.49037e-011 1.40335e-026   
     length 0.936406   
     axis -8.96029e-015 90 90   XYZ
    dof rx rz
    limits (-90.0 90.0)
           (-45.0 45.0)
  end
  begin
     id 22 
     name lfingers
     direction 1 -4.48886e-011 2.8104e-026   
     length 0.754955   
     axis -1.79203e-014 90 90   XYZ
    dof rx
    limits (0.0 90.0)
  end
  begin
     id 23
     name lthumb
     direction 0.707107 -6.34937e-011 0.707107   
     length 1.08397   
     axis -90 45 -4.48555e-014   XYZ
    dof rx rz
    limits (-45.0 45.0)
           (-45.0 45.0)
  end
  begin
     id 24 
     name rclavicle
     direction -0.947962 0.317997 0.0156638   
     length 4.86918  
     axis 0 -0 0   XYZ 
    dof ry rz
    limits (-10.0 20.0)
           (-20.0 0.0)
  end
  begin
     id 25 
     name rhumerus
     direction -1 -4.48951e-011 2.80534e-018  
     length 5.60911   
     axis 180 30 90   XYZ
    dof rx ry rz
    limits (-90.0 60.0)
           (-90.0 90.0)
           (-90.0 90.0)
  end
  begin
     id 26 
     name rradius
     direction -1 -4.4898e-011 2.11315e-027   
     length 3.38704   
     axis 180 30 90   XYZ
    dof rx
    limits (-10.0 170.0)
  end
  begin
     id 27 
     name rwrist
     direction -1 -4.48933e-011 7.02314e-027   
     length 1.69352   
     axis -4.37994e-015 -90 -90   XYZ
    dof ry
    limits (-180.0 0.0)
  end
  begin
     id 28
     name rhand
     direction -1 -4.48937e-011 1.40458e-026   
     length 0.755878   
     axis -8.96029e-015 -90 -90   XYZ
    dof rx rz
    limits (-90.0 90.0)
           (-45.0 45.0)
  end
  begin
     id 29
     name rfingers
     direction -1 -4.4901e-011 2.80737e-026   
     length 0.609409   
     axis -1.79203e-014 -90 -90   XYZ
    dof rx
    limits (0.0 90.0)
  end
  begin
     id 30
     name rthumb
     direction -0.707107 -6.34968e-011 0.707107   
     length 0.874992   
     axis -90 -45 4.48555e-014   XYZ
    dof rx rz
    limits (-45.0 45.0)
           (-45.0 45.0)
  end
:hierarchy
  begin
    root lhipjoint rhipjoint lowerback
    lhipjoint lfemur
    lfemur ltibia
    ltibia lfoot
    lfoot ltoes
    rhipjoint rfemur
    rfemur rtibia
    rtibia rfoot
    rfoot rtoes
    lowerback upperback
    upperback thorax
    thorax lowerneck lclavicle rclavicle
    lowerneck upperneck
    upperneck head
    lclavicle lhumerus
    lhumerus lradius
    lradius lwrist
    lwrist lhand lthumb
    lhand lfingers
    rclavicle rhumerus
    rhumerus rradius
    rradius rwrist
    rwrist rhand rthumb
    rhand rfingers
  end

#!OML:ASF C:\ViconDB\ViconDB\414\Spring2016\041811\Spring2016.ASF
:FULLY-SPECIFIED
:DEGREES
108
root 11.2653 17.8199 19.0368 -25.605 -85.2894 27.5609
lowerback 2.76069 -0.799614 -5.48141
upperback 0.0980522 -1.25486 -0.428549
thorax -1.34057 -0.598043 2.67905
lowerneck 7.24387 -12.5645 -28.1892
upperneck 13.3475 -23.9692 28.3717
head 10.2694 -12.6659 12.2872
rclavicle -3.8763e-015 -7.95139e-016
rhumerus -0.825049 -26.1924 -1.83928
rradius 67.6775
rwrist 16.8694
rhand -55.9607 -22.5607
rfingers 7.12502
rthumb -28.2987 -50.4429
lclavicle -3.8763e-015 -7.95139e-016
lhumerus -10.4163 9.56393 2.48383
lradius 44.4618
lwrist 5.1246
lhand -45.0112 36.2124
lfingers 7.12502
lthumb -17.7944 65.4182
rfemur 169.128 20.8996 -181.086
rtibia 30.3356
rfoot -0.183235 -45.1532
rtoes -31.7142
lfemur -15.2363 -5.93309 -12.7079
ltibia 39.6243
lfoot -30.3641 6.93665
ltoes -13.653
109
root 11.2601 17.825 19.0371 -26.1962 -85.2405 28.1915
lowerback 2.64357 -0.809646 -5.48657
upperback 0.0768211 -1.26225 -0.470336
thorax -1.29693 -0.602672 2.63714
lowerneck 7.31687 -12.5711 -28.167
upperneck 13.373 -23.9987 28.3336
head 10.2644 -12.6859 12.2672
rclavicle -1.0138e-014 -1.0138e-014
rhumerus -0.906628 -26.0348 -1.84526
rradius 67.6898
rwrist 16.9705
rhand -55.9448 -22.5785
rfingers 7.12502
rthumb -28.2835 -50.4632
lclavicle -1.0138e-014 -1.0138e-014
lhumerus -10.43 9.50284 2.41906
lradius 44.6384
lwrist 5.59363
lhand -45.2206 36.717
lfingers 7.12502
lthumb -17.9959 65.9044
rfemur 169.154 20.1419 -181.199
rtibia 30.3117
rfoot 0.670861 -44.9519
rtoes -32.1062
lfemur -15.1273 -6.44571 -12.8465
ltibia 39.4676
lfoot -30.2906 7.41263
ltoes -14.0798
110
root 11.2543 17.8296 19.0388 -26.626 -85.1954 28.6728
lowerback 2.50198 -0.829163 -5.47805
upperback 0.0541279 -1.27968 -0.490361
thorax -1.24001 -0.612549 2.60986
lowerneck 7.3924 -12.5726 -28.2314
upperneck 13.3826 -24.035 28.3447
head 10.2775 -12.7137 12.2812
rclavicle -9.33046e-015 -1.53064e-014
rhumerus -0.957781 -25.8863 -1.85797
rradius 67.7442
rwrist 16.9289
rhand -55.9414 -22.4114
rfingers 7.12502
rthumb -28.2803 -50.2967
lclavicle -9.33046e-015 -1.53064e-014
lhumerus -10.5197 9.55848 2.36208
lradius 44.7264
lwrist 5.52825
lhand -45.1842 36.8554
lfingers 7.12502
lthumb -17.9609 66.046
rfemur 169.19 19.5508 -181.289
rtibia 30.2915
rfoot 1.40581 -44.8038
rtoes -32.2524
lfemur -15.0325 -6.99376 -12.9802
ltibia 39.3255
lfoot -30.3014 7.91609
ltoes -14.3789
111
root 11.2483 17.8331 19.0374 -27.2844 -85.1458 29.3445
lowerback 2.41295 -0.839479 -5.50481
upperback 0.0364452 -1.2897 -0.526721
thorax -1.2077 -0.618143 2.58617
lowerneck 7.52033 -12.5557 -28.2679
upperneck 13.3428 -24.0605 28.4131
head 10.2659 -12.7406 12.3213
rclavicle 1.22253e-014 -1.78906e-015
rhumerus -1.06349 -25.7427 -1.87211
rradius 67.7882
rwrist 16.9965
rhand -55.9513 -22.6487
rfingers 7.12502
rthumb -28.2897 -50.5324
lclavicle 1.22253e-014 -1.78906e-015
lhumerus -10.5423 9.60498 2.29453
lradius 44.7608
lwrist 5.51383
lhand -45.0477 37.0175
lfingers 7.12502
lthumb -17.8296 66.2202
rfemur 169.166 18.9113 -181.41
rtibia 30.2919
rfoot 2.11051 -44.6473
rtoes -32.4864
lfemur -14.8992 -7.46054 -13.1166
ltibia 39.1957
lfoot -30.4312 8.32499
ltoes -14.4638
112
root 11.2407 17.8343 19.0365 -28.3463 -85.0888 30.4837
lowerback 2.23956 -0.858406 -5.58936
upperback -0.00412035 -1.3072 -0.537701
thorax -1.14914 -0.627237 2.61975
lowerneck 7.63315 -12.5574 -28.3901
upperneck 13.3604 -24.1223 28.446
head 10.2965 -12.7874 12.3523
rclavicle 1.75179e-015 -2.5842e-015
rhumerus -1.10046 -25.5657 -1.85642
rradius 67.8142
rwrist 16.9562
rhand -55.9521 -22.4966
rfingers 7.12502
rthumb -28.2905 -50.3801
lclavicle 1.75179e-015 -2.5842e-015
lhumerus -10.6447 9.51175 2.27774
lradius 44.8654
lwrist 5.69001
lhand -45.1677 37.1851
lfingers 7.12502
lthumb -17.945 66.3772
rfemur 169.204 18.8612 -181.526
rtibia 30.2951
rfoot 2.33055 -44.5721
rtoes -32.2869
lfemur -14.8392 -7.90955 -13.2895
ltibia 39.0887
lfoot -30.6939 8.72449
ltoes -14.3119
113
root 11.2336 17.835 19.0346 -28.4626 -85.0511 30.6366
lowerback 2.10065 -0.875064 -5.59631
upperback -0.0302787 -1.3207 -0.527319
thorax -1.09656 -0.634713 2.63227
lowerneck 7.70817 -12.5748 -28.4635
upperneck 13.4195 -24.1774 28.3856
head 10.3222 -12.8238 12.3334
rclavicle -5.70264e-015 -9.34288e-015
rhumerus -1.15081 -25.4248 -1.82181
rradius 67.79
rwrist 17.0162
rhand -55.8661 -22.3768
rfingers 7.12502
rthumb -28.2082 -50.274
lclavicle -5.70264e-015 -9.34288e-015
lhumerus -10.7169 9.43752 2.29756
lradius 44.9553
lwrist 5.8334
lhand -45.3234 37.1614
lfingers 7.12502
lthumb -18.0948 66.3397
rfemur 169.195 18.714 -181.571
rtibia 30.3146
rfoot 2.42746 -44.5152
rtoes -32.5563
lfemur -14.7493 -8.37992 -13.3755
ltibia 38.9818
lfoot -30.8665 9.13674
ltoes -14.276
114
root 11.2279 17.838 19.0327 -28.4621 -85.0444 30.6861
lowerback 2.00642 -0.883184 -5.59987
upperback -0.0942164 -1.32692 -0.507708
thorax -1.10847 -0.636021 2.6535
lowerneck 7.78444 -12.6089 -28.4933
upperneck 13.5233 -24.2653 28.2945
head 10.3626 -12.8747 12.2884
rclavicle 9.97651e-015 8.15017e-015
rhumerus -1.25427 -25.2583 -1.78592
rradius 67.8415
rwrist 16.9101
rhand -55.7816 -21.752
rfingers 7.12502
rthumb -28.1275 -49.6624
lclavicle 9.97651e-015 8.15017e-015
lhumerus -10.8221 9.33944 2.25979
lradius 45.0101
lwrist 5.67104
lhand -45.2384 37.1547
lfingers 7.12502
lthumb -18.013 66.3405
rfemur 169.227 18.6301 -181.566
rtibia 30.3238
rfoot 2.52945 -44.4784
rtoes -32.6252
lfemur -14.6871 -8.72611 -13.4076
ltibia 38.907
lfoot -31.0239 9.38969
ltoes -14.2958
115
root 11.2215 17.8401 19.0296 -27.5809 -85.0425 29.8273
lowerback 1.96334 -0.902376 -5.54745
upperback -0.168071 -1.34969 -0.461861
thorax -1.15844 -0.644492 2.67196
lowerneck 7.83987 -12.6359 -28.5054
upperneck 13.6716 -24.3233 28.1235
head 10.3948 -12.9083 12.2128
rclavicle 1.18712e-014 3.37934e-015
rhumerus -1.32868 -25.0739 -1.76172
rradius 67.8116
rwrist 17.1859
rhand -55.7996 -21.9782
rfingers 7.12502
rthumb -28.1447 -49.8858
lclavicle 1.18712e-014 3.37934e-015
lhumerus -10.9067 9.27351 2.26813
lradius 45.0525
lwrist 5.54585
lhand -45.1834 37.1216
lfingers 7.12502
lthumb -17.9602 66.3123
rfemur 169.217 18.4935 -181.503
rtibia 30.3206
rfoot 2.67413 -44.4139
rtoes -32.743
lfemur -14.6272 -9.00229 -13.3538
ltibia 38.8461
lfoot -31.169 9.59869
ltoes -14.23
116
root 11.2161 17.8404 19.0267 -27.0128 -85.0687 29.2856
lowerback 1.88745 -0.912801 -5.50774
upperback -0.201046 -1.35761 -0.418282
thorax -1.14893 -0.647938 2.69368
lowerneck 7.87576 -12.6153 -28.6648
upperneck 13.7707 -24.3657 28.1809
head 10.4732 -12.9436 12.2647
rclavicle -1.96921e-015 3.57812e-015
rhumerus -1.40965 -24.9007 -1.71711
rradius 67.8022
rwrist 17.1621
rhand -55.8975 -22.7602
rfingers 7.12502
rthumb -28.2382 -50.6524
lclavicle -1.96921e-015 3.57812e-015
lhumerus -10.9426 9.26096 2.29175
lradius 45.0499
lwrist 5.52445
lhand -45.1564 37.0187
lfingers 7.12502
lthumb -17.9342 66.2118
rfemur 169.234 18.4555 -181.433
rtibia 30.3065
rfoot 2.74323 -44.3738
rtoes -32.682
lfemur -14.6342 -9.04564 -13.305
ltibia 38.8039
lfoot -31.055 9.73357
ltoes -14.3153
